<svg width="64" height="64" viewBox="0 0 64 64" fill="none" xmlns="http://www.w3.org/2000/svg">
<rect width="64" height="64" rx="15" fill="white"/>
<mask id="mask0_328_9" style="mask-type:alpha" maskUnits="userSpaceOnUse" x="0" y="0" width="64" height="64">
<rect width="64" height="64" rx="25" fill="white"/>
</mask>
<g mask="url(#mask0_328_9)">
<path d="M9.612 38V25.184H1.74V21.224H23.292V25.184H15.396V38H9.612ZM2.94 45.176H57.276V48.992H8.604V51.488H56.964V55.328H8.604V58.088H57.516V62H2.94V45.176ZM8.676 86H2.94V69.224H8.676V76.208L18.06 69.224H25.332L14.796 76.88L25.836 86H18.348L8.676 78.08V86ZM13.02 134.312C11.196 134.296 9.604 134.152 8.244 133.88C6.884 133.592 5.836 133.248 5.1 132.848C4.364 132.432 3.772 131.936 3.324 131.36C2.892 130.784 2.62 130.256 2.508 129.776C2.38 129.312 2.316 128.816 2.316 128.288V128.048H8.292C8.388 129.28 9.116 130.08 10.476 130.448C11.196 130.624 12.108 130.712 13.212 130.712H14.532C15.396 130.712 16.196 130.664 16.932 130.568C17.684 130.472 18.236 130.336 18.588 130.16C18.924 129.968 19.148 129.776 19.26 129.584C19.372 129.392 19.436 129.176 19.452 128.936C19.452 128.568 19.348 128.28 19.14 128.072C18.932 127.864 18.476 127.68 17.772 127.52C17.036 127.36 15.996 127.264 14.652 127.232L12.852 127.208L11.484 127.16C5.532 127.016 2.556 125.376 2.556 122.24V122.048C2.572 121.504 2.644 121 2.772 120.536C2.932 120.088 3.228 119.632 3.66 119.168C4.108 118.704 4.692 118.32 5.412 118.016C6.132 117.696 7.092 117.432 8.292 117.224C9.508 117.016 10.924 116.912 12.54 116.912H14.22C15.9 116.912 17.38 117.024 18.66 117.248C19.94 117.456 20.956 117.728 21.708 118.064C22.476 118.384 23.1 118.784 23.58 119.264C24.076 119.76 24.412 120.24 24.588 120.704C24.764 121.184 24.852 121.688 24.852 122.216V122.456H18.9C18.868 122.264 18.82 122.112 18.756 122C18.708 121.872 18.572 121.704 18.348 121.496C18.14 121.272 17.868 121.096 17.532 120.968C17.164 120.824 16.652 120.704 15.996 120.608C15.292 120.496 14.588 120.44 13.884 120.44H13.02C11.772 120.44 10.78 120.52 10.044 120.68C9.308 120.84 8.86 121.008 8.7 121.184C8.54 121.344 8.46 121.576 8.46 121.88C8.476 122.168 8.564 122.4 8.724 122.576C8.9 122.768 9.308 122.944 9.948 123.104C10.604 123.248 11.524 123.32 12.708 123.32L14.052 123.344L15.78 123.368C19.188 123.432 21.652 123.864 23.172 124.664C24.692 125.448 25.452 126.68 25.452 128.36V128.672C25.452 129.296 25.38 129.856 25.236 130.352C25.076 130.832 24.764 131.328 24.3 131.84C23.852 132.352 23.244 132.784 22.476 133.136C21.724 133.472 20.684 133.752 19.356 133.976C18.028 134.2 16.484 134.312 14.724 134.312H13.02ZM45.756 158H13.788C12.444 158 11.212 157.896 10.092 157.688C8.988 157.464 8.052 157.176 7.284 156.824C6.532 156.472 5.86 156.04 5.268 155.528C4.692 155.016 4.236 154.504 3.9 153.992C3.548 153.464 3.268 152.904 3.06 152.312C2.836 151.72 2.692 151.176 2.628 150.68C2.548 150.184 2.508 149.696 2.508 149.216V141.176H8.196V148.904C8.196 149.496 8.276 150.048 8.436 150.56C8.628 151.088 8.916 151.6 9.3 152.096C9.716 152.592 10.34 152.984 11.172 153.272C12.02 153.56 12.908 153.704 13.836 153.704C34.732 153.704 45.308 153.696 45.564 153.68C46.684 153.632 47.572 153.496 48.228 153.272C49.044 152.984 49.66 152.592 50.076 152.096C50.492 151.584 50.78 151.072 50.94 150.56C51.116 150.048 51.204 149.496 51.204 148.904V141.176H56.868V149.216C56.868 149.92 56.78 150.624 56.604 151.328C56.428 152.064 56.092 152.832 55.596 153.632C55.1 154.464 54.46 155.192 53.676 155.816C52.908 156.44 51.836 156.96 50.46 157.376C49.084 157.792 47.516 158 45.756 158ZM2.94 165.224H9.348L21.036 175.784V165.224H26.676V182H21.036L8.604 170.888V182H2.94V165.224Z" fill="black"/>
<g filter="url(#filter0_b_328_9)">
<rect x="29" y="11" width="30" height="30.5" rx="10" fill="url(#paint0_radial_328_9)" fill-opacity="0.8"/>
<rect x="30" y="12" width="28" height="28.5" rx="9" stroke="url(#paint1_linear_328_9)" stroke-width="2"/>
</g>
</g>
<defs>
<filter id="filter0_b_328_9" x="25" y="7" width="38" height="38.5" filterUnits="userSpaceOnUse" color-interpolation-filters="sRGB">
<feFlood flood-opacity="0" result="BackgroundImageFix"/>
<feGaussianBlur in="BackgroundImageFix" stdDeviation="2"/>
<feComposite in2="SourceAlpha" operator="in" result="effect1_backgroundBlur_328_9"/>
<feBlend mode="normal" in="SourceGraphic" in2="effect1_backgroundBlur_328_9" result="shape"/>
</filter>
<radialGradient id="paint0_radial_328_9" cx="0" cy="0" r="1" gradientUnits="userSpaceOnUse" gradientTransform="translate(27.0729 -9.2392) rotate(49.4727) scale(76.7852 129.257)">
<stop stop-color="#D9D9D9"/>
<stop offset="1" stop-color="#D9D9D9" stop-opacity="0.13"/>
</radialGradient>
<linearGradient id="paint1_linear_328_9" x1="29.1748" y1="48.0621" x2="62.2594" y2="46.3786" gradientUnits="userSpaceOnUse">
<stop stop-color="#949494" stop-opacity="0.28"/>
<stop offset="0.26932" stop-color="white" stop-opacity="0"/>
<stop offset="0.454696" stop-opacity="0.08"/>
<stop offset="0.860658" stop-opacity="0.07"/>
</linearGradient>
</defs>
</svg>
