<svg width="17" height="15" viewBox="0 0 17 15" fill="none" xmlns="http://www.w3.org/2000/svg">
<path d="M13.8855 4.82068C13.7063 4.76091 13.527 4.70447 13.3477 4.65134C13.3775 4.52849 13.4041 4.40564 13.4307 4.28279C13.8391 2.30388 13.5701 0.713452 12.6637 0.188843C11.7904 -0.312525 10.366 0.208764 8.925 1.46384C8.78223 1.58669 8.64277 1.71619 8.50996 1.84568C8.42031 1.75935 8.32734 1.67302 8.23438 1.59001C6.72363 0.248608 5.20957 -0.315845 4.30313 0.212085C3.4332 0.716772 3.17422 2.21423 3.53945 4.08689C3.57598 4.27283 3.61582 4.45544 3.6623 4.64138C3.4498 4.70115 3.24062 4.76755 3.04473 4.83728C1.27168 5.45154 0 6.42107 0 7.4238C0 8.45974 1.35469 9.499 3.19746 10.1299C3.34688 10.1797 3.49629 10.2295 3.64902 10.2726C3.59922 10.4719 3.55605 10.6677 3.51621 10.8703C3.16758 12.7131 3.43984 14.174 4.30977 14.6754C5.20625 15.1933 6.71367 14.6621 8.18125 13.3771C8.29746 13.2742 8.41367 13.1679 8.52988 13.0551C8.67598 13.1978 8.82871 13.334 8.98145 13.4668C10.4025 14.6886 11.807 15.1834 12.6736 14.682C13.5701 14.164 13.8623 12.5935 13.4838 10.681C13.4539 10.5349 13.4207 10.3855 13.3842 10.2328C13.4904 10.2029 13.5934 10.1697 13.6963 10.1365C15.6121 9.50232 17 8.47634 17 7.4238C17 6.41775 15.6918 5.44158 13.8855 4.82068ZM9.39316 2.00173C10.6283 0.925952 11.7805 0.504272 12.3051 0.806421C12.8662 1.12849 13.082 2.43005 12.7301 4.14001C12.7068 4.2529 12.6836 4.36247 12.6537 4.47205C11.9166 4.30603 11.1695 4.1865 10.4191 4.12009C9.9875 3.50251 9.51602 2.9115 9.00469 2.35701C9.13418 2.23416 9.26035 2.11794 9.39316 2.00173ZM5.55156 9.14705C5.7209 9.43591 5.89355 9.72478 6.07617 10.007C5.5582 9.95056 5.04356 9.86755 4.53555 9.75798C4.68164 9.27986 4.86426 8.78513 5.07676 8.28044C5.22949 8.57263 5.38555 8.8615 5.55156 9.14705ZM4.54551 5.15271C5.02363 5.04646 5.53164 4.96013 6.05957 4.89372C5.88359 5.16931 5.71094 5.45154 5.54824 5.73708C5.38555 6.01931 5.22617 6.30818 5.07676 6.60037C4.86758 6.10564 4.6916 5.62087 4.54551 5.15271ZM5.45527 7.4404C5.67441 6.9822 5.91348 6.53396 6.16582 6.09236C6.41816 5.65076 6.69043 5.22244 6.97598 4.80076C7.47402 4.76423 7.98203 4.74431 8.5 4.74431C9.01797 4.74431 9.5293 4.76423 10.024 4.80076C10.3062 5.21912 10.5752 5.64744 10.8309 6.08572C11.0865 6.524 11.3256 6.97224 11.5514 7.42712C11.3289 7.88533 11.0898 8.33689 10.8342 8.78181C10.5818 9.22341 10.3129 9.65173 10.0307 10.0767C9.53594 10.1133 9.02129 10.1299 8.5 10.1299C7.97871 10.1299 7.47402 10.1133 6.98594 10.0834C6.69707 9.66169 6.4248 9.23005 6.16914 8.78845C5.91348 8.34685 5.67773 7.89861 5.45527 7.4404ZM11.4518 9.1404C11.6211 8.84822 11.7805 8.55271 11.9365 8.25388C12.149 8.73533 12.335 9.22341 12.4977 9.72478C11.983 9.84099 11.4617 9.93064 10.9371 9.99041C11.1164 9.7115 11.2857 9.42595 11.4518 9.1404ZM11.9299 6.60037C11.7738 6.30818 11.6145 6.01599 11.4484 5.73044C11.2857 5.44822 11.1164 5.16931 10.9404 4.89372C11.475 4.96013 11.9863 5.04978 12.4645 5.15935C12.3117 5.65076 12.1324 6.12888 11.9299 6.60037ZM8.50664 2.86501C8.85527 3.24353 9.18398 3.64197 9.48945 4.05369C8.83203 4.0238 8.17129 4.0238 7.51387 4.05369C7.83926 3.62537 8.17461 3.22693 8.50664 2.86501ZM4.65508 0.829663C5.21289 0.504272 6.45137 0.969116 7.75625 2.12458C7.83926 2.19763 7.92227 2.27732 8.00859 2.35701C7.49395 2.9115 7.01914 3.50251 6.58418 4.12009C5.83379 4.1865 5.09004 4.30271 4.35293 4.4654C4.30977 4.29607 4.27324 4.12341 4.23672 3.95076C3.92461 2.34373 4.13047 1.13181 4.65508 0.829663ZM3.8416 9.58201C3.70215 9.54216 3.56602 9.499 3.42988 9.45251C2.72266 9.23005 1.91914 8.8781 1.33809 8.41658C1.00273 8.18415 0.776953 7.82556 0.713867 7.4238C0.713867 6.81619 1.76309 6.03923 3.27715 5.5113C3.46641 5.4449 3.65898 5.38513 3.85156 5.32869C4.07734 6.04919 4.34961 6.75642 4.66504 7.4404C4.34629 8.13435 4.0707 8.85154 3.8416 9.58201ZM7.71309 12.8359C7.16523 13.3373 6.53105 13.7357 5.84043 14.008C5.47187 14.184 5.04688 14.2006 4.66836 14.0511C4.14043 13.7457 3.92129 12.5736 4.22012 10.9965C4.25664 10.8105 4.29648 10.6246 4.34297 10.442C5.08672 10.6013 5.83711 10.7109 6.59746 10.7674C7.03574 11.3883 7.51719 11.9826 8.03184 12.5404C7.92559 12.6433 7.81934 12.7429 7.71309 12.8359ZM8.52656 12.0291C8.18789 11.6638 7.84922 11.2588 7.52051 10.8238C7.83926 10.8371 8.16797 10.8437 8.5 10.8437C8.84199 10.8437 9.17734 10.8371 9.50937 10.8205C9.20391 11.2422 8.87519 11.6439 8.52656 12.0291ZM12.8662 13.0252C12.8363 13.4302 12.6371 13.8088 12.3184 14.0644C11.7904 14.3699 10.6648 13.9715 9.44961 12.9289C9.31016 12.8094 9.1707 12.6799 9.02793 12.547C9.53594 11.9859 10.0041 11.3916 10.4291 10.7674C11.1895 10.7043 11.9465 10.5881 12.6936 10.4187C12.7268 10.5549 12.7566 10.691 12.7832 10.8238C12.9459 11.541 12.9725 12.2881 12.8662 13.0252ZM13.4705 9.45583C13.3775 9.48572 13.2846 9.5156 13.1883 9.54216C12.9559 8.81833 12.6703 8.11111 12.3416 7.4238C12.6604 6.74646 12.9293 6.04919 13.1551 5.33533C13.3277 5.38513 13.4938 5.43826 13.6531 5.49138C15.2004 6.02263 16.2861 6.81287 16.2861 7.41716C16.2861 8.06794 15.1273 8.90798 13.4705 9.45583ZM8.5 8.95779C9.34004 8.95779 10.0207 8.27712 10.0207 7.43708C10.0207 6.59705 9.34004 5.91638 8.5 5.91638C7.65996 5.91638 6.9793 6.59705 6.9793 7.43708C6.9793 8.27712 7.65996 8.95779 8.5 8.95779Z" fill="#149ECA"/>
</svg>
