<svg width="17" height="17" viewBox="0 0 17 17" fill="none" xmlns="http://www.w3.org/2000/svg">
<g clip-path="url(#clip0_3_397)">
<path d="M15.6719 0H1.32812C0.594622 0 0 0.594622 0 1.32812V15.6719C0 16.4054 0.594622 17 1.32812 17H15.6719C16.4054 17 17 16.4054 17 15.6719V1.32812C17 0.594622 16.4054 0 15.6719 0Z" fill="#3178C6"/>
<path fill-rule="evenodd" clip-rule="evenodd" d="M9.99534 13.3128V15.1469C10.2936 15.2998 10.6464 15.4144 11.0537 15.4909C11.461 15.5673 11.8902 15.6055 12.3415 15.6055C12.7813 15.6055 13.1991 15.5634 13.5949 15.4794C13.9907 15.3953 14.3378 15.2568 14.636 15.0639C14.9343 14.8709 15.1704 14.6187 15.3445 14.3072C15.5185 13.9958 15.6055 13.6109 15.6055 13.1524C15.6055 12.8199 15.5557 12.5285 15.4563 12.2782C15.3569 12.028 15.2135 11.8054 15.0261 11.6105C14.8387 11.4156 14.614 11.2409 14.3521 11.0861C14.0901 10.9313 13.7947 10.7852 13.4658 10.6476C13.2249 10.5482 13.0089 10.4518 12.8176 10.3582C12.6264 10.2645 12.4639 10.1691 12.33 10.0716C12.1962 9.97415 12.0929 9.87096 12.0203 9.76205C11.9476 9.65314 11.9113 9.52996 11.9113 9.39237C11.9113 9.26626 11.9438 9.15264 12.0088 9.05137C12.0738 8.9501 12.1656 8.86318 12.2842 8.79059C12.4027 8.71795 12.548 8.66163 12.7201 8.62146C12.8922 8.58135 13.0834 8.56129 13.2937 8.56129C13.4467 8.56129 13.6083 8.57278 13.7784 8.59569C13.9486 8.6186 14.1198 8.65393 14.2919 8.70174C14.4639 8.74949 14.6312 8.80965 14.7938 8.8823C14.9563 8.95488 15.1064 9.03895 15.2441 9.13445V7.4207C14.9649 7.31372 14.6599 7.23443 14.3291 7.18283C13.9984 7.13123 13.6188 7.10547 13.1905 7.10547C12.7545 7.10547 12.3415 7.15229 11.9515 7.24592C11.5614 7.33948 11.2181 7.48564 10.9218 7.68433C10.6254 7.88309 10.3912 8.13623 10.2191 8.44382C10.047 8.75141 9.96094 9.11917 9.96094 9.54716C9.96094 10.0936 10.1187 10.5597 10.4342 10.9457C10.7497 11.3316 11.2286 11.6583 11.8711 11.9258C12.1235 12.029 12.3587 12.1302 12.5767 12.2296C12.7947 12.3289 12.983 12.432 13.1417 12.539C13.3004 12.646 13.4257 12.7626 13.5175 12.8887C13.6092 13.0148 13.6551 13.1581 13.6551 13.3186C13.6551 13.437 13.6264 13.5469 13.5691 13.6481C13.5117 13.7493 13.4247 13.8373 13.3081 13.9118C13.1915 13.9863 13.0461 14.0445 12.8721 14.0866C12.6981 14.1286 12.4945 14.1496 12.2612 14.1496C11.8635 14.1496 11.4696 14.0799 11.0796 13.9404C10.6894 13.8009 10.328 13.5918 9.99534 13.3128ZM6.93826 8.74849H9.29688V7.23828H2.72266V8.74849H5.06977V15.4727H6.93826V8.74849Z" fill="white"/>
</g>
<defs>
<clipPath id="clip0_3_397">
<rect width="17" height="17" fill="white"/>
</clipPath>
</defs>
</svg>
