<svg width="17" height="17" viewBox="0 0 17 17" fill="none" xmlns="http://www.w3.org/2000/svg">
<path d="M9.49221 3.3346C7.65233 5.17179 6.10455 6.66845 6.03153 6.66845C5.97055 6.66845 4.95953 5.92651 3.8017 5.02596L1.70587 3.38346L0 4.23515V12.7528L1.70587 13.6045L3.64361 12.0958C4.71637 11.2562 5.7033 10.5022 5.8373 10.4165C6.08121 10.2707 6.32437 10.4894 9.48091 13.6293L12.8565 17L14.9283 16.1603L17 15.3327V1.65527L15.4161 1.02233C14.5511 0.669025 13.6123 0.304444 13.3323 0.194694L12.8324 0L9.49371 3.33385L9.49221 3.3346ZM12.7948 8.49436C12.7948 10.3684 12.7707 11.9011 12.7218 11.9011C12.5509 11.9011 8.40816 8.56728 8.44429 8.45753C8.48118 8.32372 12.5629 5.09887 12.7097 5.09887C12.7587 5.08684 12.7955 6.61959 12.7955 8.49361L12.7948 8.49436ZM3.10685 7.27734L4.32566 8.49436L3.10685 9.71138C2.43685 10.3804 1.85192 10.9284 1.80298 10.9284C1.74201 10.9284 1.70512 9.83316 1.70512 8.49511C1.70512 7.15706 1.74125 6.06107 1.80298 6.06107C1.85192 6.06107 2.43685 6.60831 3.10685 7.27734Z" fill="#028FD6"/>
</svg>
