<svg width="256" height="256" viewBox="0 0 256 256" fill="none" xmlns="http://www.w3.org/2000/svg">
<rect width="256" height="256" rx="25" fill="white"/>
<mask id="mask0_472_8" style="mask-type:alpha" maskUnits="userSpaceOnUse" x="0" y="0" width="256" height="256">
<rect width="256" height="256" rx="25" fill="white"/>
</mask>
<g mask="url(#mask0_472_8)">
<path d="M51.816 69V51.912H41.32V46.632H70.056V51.912H59.528V69H51.816ZM72.3263 46.568H144.774V51.656H79.8783V54.984H144.358V60.104H79.8783V63.784H145.094V69H72.3263V46.568ZM163.907 69.384C161.944 69.384 160.152 69.2347 158.531 68.936C156.909 68.6587 155.544 68.296 154.435 67.848C153.325 67.4 152.344 66.8453 151.491 66.184C150.637 65.5227 149.976 64.8613 149.507 64.2C149.016 63.5387 148.611 62.8347 148.291 62.088C147.971 61.2987 147.768 60.5947 147.683 59.976C147.576 59.3573 147.523 58.7387 147.523 58.12V57.256C147.523 56.2747 147.619 55.3573 147.811 54.504C148.003 53.6293 148.44 52.6587 149.123 51.592C149.827 50.5253 150.733 49.6187 151.843 48.872C152.973 48.104 154.573 47.464 156.643 46.952C158.712 46.4187 161.133 46.152 163.907 46.152H165.251C167.939 46.152 170.317 46.376 172.387 46.824C174.456 47.272 176.056 47.8267 177.187 48.488C178.296 49.128 179.213 49.8853 179.939 50.76C180.643 51.6133 181.101 52.3707 181.315 53.032C181.528 53.7147 181.635 54.3653 181.635 54.984V55.304H173.507C173.443 55.0693 173.357 54.856 173.251 54.664C173.123 54.4507 172.877 54.1413 172.515 53.736C172.088 53.3093 171.587 52.9573 171.011 52.68C170.413 52.4027 169.56 52.1467 168.451 51.912C167.32 51.6773 166.019 51.56 164.547 51.56C162.797 51.56 161.304 51.7307 160.067 52.072C158.829 52.4133 157.901 52.872 157.283 53.448C156.664 54.0453 156.216 54.6533 155.939 55.272C155.683 55.9333 155.555 56.6373 155.555 57.384V57.768C155.555 58.4933 155.704 59.1867 156.003 59.848C156.301 60.5307 156.76 61.192 157.379 61.832C158.019 62.4507 158.968 62.952 160.227 63.336C161.485 63.72 162.947 63.912 164.611 63.912C169.645 63.912 172.611 62.6107 173.507 60.008C173.528 59.9653 173.539 59.944 173.539 59.944H181.667V60.264C181.645 60.9467 181.528 61.6293 181.315 62.312C181.08 63.016 180.6 63.8053 179.875 64.68C179.149 65.5547 178.221 66.3227 177.091 66.984C175.96 67.6453 174.36 68.2107 172.291 68.68C170.243 69.1493 167.896 69.384 165.251 69.384H163.907ZM184.513 68.968V46.632H192.129V54.792H208.513V46.632H216.129V68.968H208.513V60.168H192.129V68.968H184.513ZM56.36 165.416C53.928 165.395 51.8053 165.203 49.992 164.84C48.1787 164.456 46.7813 163.997 45.8 163.464C44.8187 162.909 44.0293 162.248 43.432 161.48C42.856 160.712 42.4933 160.008 42.344 159.368C42.1733 158.749 42.088 158.088 42.088 157.384V157.064H50.056C50.184 158.707 51.1547 159.773 52.968 160.264C53.928 160.499 55.144 160.616 56.616 160.616H58.376C59.528 160.616 60.5947 160.552 61.576 160.424C62.5787 160.296 63.3147 160.115 63.784 159.88C64.232 159.624 64.5307 159.368 64.68 159.112C64.8293 158.856 64.9147 158.568 64.936 158.248C64.936 157.757 64.7973 157.373 64.52 157.096C64.2427 156.819 63.6347 156.573 62.696 156.36C61.7147 156.147 60.328 156.019 58.536 155.976L56.136 155.944L54.312 155.88C46.376 155.688 42.408 153.501 42.408 149.32V149.064C42.4293 148.339 42.5253 147.667 42.696 147.048C42.9093 146.451 43.304 145.843 43.88 145.224C44.4773 144.605 45.256 144.093 46.216 143.688C47.176 143.261 48.456 142.909 50.056 142.632C51.6773 142.355 53.5653 142.216 55.72 142.216H57.96C60.2 142.216 62.1733 142.365 63.88 142.664C65.5867 142.941 66.9413 143.304 67.944 143.752C68.968 144.179 69.8 144.712 70.44 145.352C71.1013 146.013 71.5493 146.653 71.784 147.272C72.0187 147.912 72.136 148.584 72.136 149.288V149.608H64.2C64.1573 149.352 64.0933 149.149 64.008 149C63.944 148.829 63.7627 148.605 63.464 148.328C63.1867 148.029 62.824 147.795 62.376 147.624C61.8853 147.432 61.2027 147.272 60.328 147.144C59.3893 146.995 58.4507 146.92 57.512 146.92H56.36C54.696 146.92 53.3733 147.027 52.392 147.24C51.4107 147.453 50.8133 147.677 50.6 147.912C50.3867 148.125 50.28 148.435 50.28 148.84C50.3013 149.224 50.4187 149.533 50.632 149.768C50.8667 150.024 51.4107 150.259 52.264 150.472C53.1387 150.664 54.3653 150.76 55.944 150.76L57.736 150.792L60.04 150.824C64.584 150.909 67.8693 151.485 69.896 152.552C71.9227 153.597 72.936 155.24 72.936 157.48V157.896C72.936 158.728 72.84 159.475 72.648 160.136C72.4347 160.776 72.0187 161.437 71.4 162.12C70.8027 162.803 69.992 163.379 68.968 163.848C67.9653 164.296 66.5787 164.669 64.808 164.968C63.0373 165.267 60.9787 165.416 58.632 165.416H56.36ZM94.224 157.544H83.568V165H75.92V142.632H94.224C101.819 142.632 105.616 145.053 105.616 149.896V150.216C105.616 155.101 101.819 157.544 94.224 157.544ZM83.568 147.72V152.52H94.096C96.464 152.52 97.648 151.741 97.648 150.184V150.088C97.648 148.509 96.464 147.72 94.096 147.72H83.568ZM108.201 142.568H180.649V147.656H115.753V150.984H180.233V156.104H115.753V159.784H180.969V165H108.201V142.568ZM184.358 142.536H200.582C202.864 142.536 204.923 142.675 206.758 142.952C208.592 143.229 210.128 143.635 211.366 144.168C212.603 144.723 213.648 145.32 214.502 145.96C215.398 146.621 216.07 147.357 216.518 148.168C216.987 149 217.328 149.811 217.542 150.6C217.734 151.411 217.83 152.264 217.83 153.16V154.056C217.83 155.144 217.702 156.147 217.446 157.064C217.168 158.003 216.646 158.973 215.878 159.976C215.11 160.979 214.107 161.832 212.87 162.536C211.654 163.24 209.99 163.827 207.878 164.296C205.766 164.744 203.344 164.968 200.614 164.968H184.358V142.536ZM192.006 147.848V159.592H199.974C206.523 159.592 209.798 157.661 209.798 153.8V153.608C209.798 149.768 206.523 147.848 199.974 147.848H192.006ZM50.568 189.064V197H42.92V174.632H62.6C69.6613 174.632 73.192 176.563 73.192 180.424V180.776C73.192 183.144 71.688 184.787 68.68 185.704C70.0453 186.067 71.1547 186.675 72.008 187.528C72.8613 188.381 73.288 189.491 73.288 190.856V194.12L73.32 197H65.608C65.608 196.979 65.6187 196.509 65.64 195.592V193C65.64 191.613 65.256 190.611 64.488 189.992C63.72 189.373 62.408 189.064 60.552 189.064H50.568ZM50.568 179.72V184.104H62.152C63.1973 184.104 63.9653 183.901 64.456 183.496C64.968 183.091 65.224 182.557 65.224 181.896V181.864C65.224 181.224 64.968 180.712 64.456 180.328C63.9653 179.923 63.1973 179.72 62.152 179.72H50.568ZM92.3493 197.064H91.1973C89.4053 197.064 87.7626 196.925 86.2693 196.648C84.7973 196.349 83.5493 195.965 82.5253 195.496C81.5226 195.005 80.6266 194.429 79.8373 193.768C79.0693 193.064 78.4613 192.371 78.0133 191.688C77.5439 190.984 77.1706 190.248 76.8932 189.48C76.5946 188.691 76.4026 187.965 76.3173 187.304C76.2106 186.643 76.1573 185.992 76.1573 185.352V174.632H83.7413V184.936C83.7413 185.725 83.8479 186.461 84.0613 187.144C84.3173 187.827 84.7013 188.499 85.2133 189.16C85.7679 189.821 86.5999 190.344 87.7093 190.728C88.8186 191.112 90.1519 191.304 91.7093 191.304C93.2453 191.304 94.5573 191.112 95.6453 190.728C96.7333 190.344 97.5546 189.821 98.1093 189.16C98.6426 188.477 99.0266 187.805 99.2613 187.144C99.4959 186.461 99.6133 185.725 99.6133 184.936V174.632H107.165V185.352C107.165 186.269 107.048 187.208 106.813 188.168C106.579 189.128 106.131 190.152 105.469 191.24C104.808 192.349 103.955 193.32 102.909 194.152C101.864 194.984 100.424 195.677 98.5893 196.232C96.7759 196.787 94.6959 197.064 92.3493 197.064ZM110.42 174.632H118.964L134.548 188.712V174.632H142.068V197H134.548L117.972 182.184V197H110.42V174.632Z" fill="black"/>
<g filter="url(#filter0_b_472_8)">
<rect x="45" y="59" width="155" height="94" rx="10" fill="url(#paint0_radial_472_8)" fill-opacity="0.8"/>
<rect x="46" y="60" width="153" height="92" rx="9" stroke="url(#paint1_linear_472_8)" stroke-width="2"/>
</g>
</g>
<defs>
<filter id="filter0_b_472_8" x="41" y="55" width="163" height="102" filterUnits="userSpaceOnUse" color-interpolation-filters="sRGB">
<feFlood flood-opacity="0" result="BackgroundImageFix"/>
<feGaussianBlur in="BackgroundImageFix" stdDeviation="2"/>
<feComposite in2="SourceAlpha" operator="in" result="effect1_backgroundBlur_472_8"/>
<feBlend mode="normal" in="SourceGraphic" in2="effect1_backgroundBlur_472_8" result="shape"/>
</filter>
<radialGradient id="paint0_radial_472_8" cx="0" cy="0" r="1" gradientUnits="userSpaceOnUse" gradientTransform="translate(35.0434 -3.37656) rotate(34.9054) scale(314.347 502.76)">
<stop stop-color="#D9D9D9"/>
<stop offset="1" stop-color="#D9D9D9" stop-opacity="0.13"/>
</radialGradient>
<linearGradient id="paint1_linear_472_8" x1="45.9033" y1="173.224" x2="216.045" y2="158.71" gradientUnits="userSpaceOnUse">
<stop stop-color="#949494" stop-opacity="0.28"/>
<stop offset="0.26932" stop-color="white" stop-opacity="0"/>
<stop offset="0.454696" stop-opacity="0.08"/>
<stop offset="0.860658" stop-opacity="0.07"/>
</linearGradient>
</defs>
</svg>
