<svg width="144" height="144" viewBox="0 0 144 144" fill="none" xmlns="http://www.w3.org/2000/svg">
<rect width="144" height="144" rx="25" fill="white"/>
<mask id="mask0_469_2" style="mask-type:alpha" maskUnits="userSpaceOnUse" x="0" y="0" width="144" height="144">
<rect width="144" height="144" rx="25" fill="white"/>
</mask>
<g mask="url(#mask0_469_2)">
<path d="M5.112 57V44.184H-2.76V40.224H18.792V44.184H10.896V57H5.112ZM20.4947 40.176H74.8307V43.992H26.1587V46.488H74.5187V50.328H26.1587V53.088H75.0707V57H20.4947V40.176ZM89.1799 57.288C87.7079 57.288 86.3639 57.176 85.1479 56.952C83.9319 56.744 82.9079 56.472 82.0759 56.136C81.2439 55.8 80.5079 55.384 79.8679 54.888C79.2279 54.392 78.7319 53.896 78.3799 53.4C78.0119 52.904 77.7079 52.376 77.4679 51.816C77.2279 51.224 77.0759 50.696 77.0119 50.232C76.9319 49.768 76.8919 49.304 76.8919 48.84V48.192C76.8919 47.456 76.9639 46.768 77.1079 46.128C77.2519 45.472 77.5799 44.744 78.0919 43.944C78.6199 43.144 79.2999 42.464 80.1319 41.904C80.9799 41.328 82.1799 40.848 83.7319 40.464C85.2839 40.064 87.0999 39.864 89.1799 39.864H90.1879C92.2039 39.864 93.9879 40.032 95.5399 40.368C97.0919 40.704 98.2919 41.12 99.1399 41.616C99.9719 42.096 100.66 42.664 101.204 43.32C101.732 43.96 102.076 44.528 102.236 45.024C102.396 45.536 102.476 46.024 102.476 46.488V46.728H96.3799C96.3319 46.552 96.2679 46.392 96.1879 46.248C96.0919 46.088 95.9079 45.856 95.6359 45.552C95.3159 45.232 94.9399 44.968 94.5079 44.76C94.0599 44.552 93.4199 44.36 92.5879 44.184C91.7399 44.008 90.7639 43.92 89.6599 43.92C88.3479 43.92 87.2279 44.048 86.2999 44.304C85.3719 44.56 84.6759 44.904 84.2119 45.336C83.7479 45.784 83.4119 46.24 83.2039 46.704C83.0119 47.2 82.9159 47.728 82.9159 48.288V48.576C82.9159 49.12 83.0279 49.64 83.2519 50.136C83.4759 50.648 83.8199 51.144 84.2839 51.624C84.7639 52.088 85.4759 52.464 86.4199 52.752C87.3639 53.04 88.4599 53.184 89.7079 53.184C93.4839 53.184 95.7079 52.208 96.3799 50.256C96.3959 50.224 96.4039 50.208 96.4039 50.208H102.5V50.448C102.484 50.96 102.396 51.472 102.236 51.984C102.06 52.512 101.7 53.104 101.156 53.76C100.612 54.416 99.9159 54.992 99.0679 55.488C98.2199 55.984 97.0199 56.408 95.4679 56.76C93.9319 57.112 92.1719 57.288 90.1879 57.288H89.1799ZM104.635 56.976V40.224H110.347V46.344H122.635V40.224H128.347V56.976H122.635V50.376H110.347V56.976H104.635ZM34.2544 81.312C32.4304 81.296 30.8384 81.152 29.4784 80.88C28.1184 80.592 27.0704 80.248 26.3344 79.848C25.5984 79.432 25.0064 78.936 24.5584 78.36C24.1264 77.784 23.8544 77.256 23.7424 76.776C23.6144 76.312 23.5504 75.816 23.5504 75.288V75.048H29.5264C29.6224 76.28 30.3504 77.08 31.7104 77.448C32.4304 77.624 33.3424 77.712 34.4464 77.712H35.7664C36.6304 77.712 37.4304 77.664 38.1664 77.568C38.9184 77.472 39.4704 77.336 39.8224 77.16C40.1584 76.968 40.3824 76.776 40.4944 76.584C40.6064 76.392 40.6704 76.176 40.6864 75.936C40.6864 75.568 40.5824 75.28 40.3744 75.072C40.1664 74.864 39.7104 74.68 39.0064 74.52C38.2704 74.36 37.2304 74.264 35.8864 74.232L34.0864 74.208L32.7184 74.16C26.7664 74.016 23.7904 72.376 23.7904 69.24V69.048C23.8064 68.504 23.8784 68 24.0064 67.536C24.1664 67.088 24.4624 66.632 24.8944 66.168C25.3424 65.704 25.9264 65.32 26.6464 65.016C27.3664 64.696 28.3264 64.432 29.5264 64.224C30.7424 64.016 32.1584 63.912 33.7744 63.912H35.4544C37.1344 63.912 38.6144 64.024 39.8944 64.248C41.1744 64.456 42.1904 64.728 42.9424 65.064C43.7104 65.384 44.3344 65.784 44.8144 66.264C45.3104 66.76 45.6464 67.24 45.8224 67.704C45.9984 68.184 46.0864 68.688 46.0864 69.216V69.456H40.1344C40.1024 69.264 40.0544 69.112 39.9904 69C39.9424 68.872 39.8064 68.704 39.5824 68.496C39.3744 68.272 39.1024 68.096 38.7664 67.968C38.3984 67.824 37.8864 67.704 37.2304 67.608C36.5264 67.496 35.8224 67.44 35.1184 67.44H34.2544C33.0064 67.44 32.0144 67.52 31.2784 67.68C30.5424 67.84 30.0944 68.008 29.9344 68.184C29.7744 68.344 29.6944 68.576 29.6944 68.88C29.7104 69.168 29.7984 69.4 29.9584 69.576C30.1344 69.768 30.5424 69.944 31.1824 70.104C31.8384 70.248 32.7584 70.32 33.9424 70.32L35.2864 70.344L37.0144 70.368C40.4224 70.432 42.8864 70.864 44.4064 71.664C45.9264 72.448 46.6864 73.68 46.6864 75.36V75.672C46.6864 76.296 46.6144 76.856 46.4704 77.352C46.3104 77.832 45.9984 78.328 45.5344 78.84C45.0864 79.352 44.4784 79.784 43.7104 80.136C42.9584 80.472 41.9184 80.752 40.5904 80.976C39.2624 81.2 37.7184 81.312 35.9584 81.312H34.2544ZM62.6524 75.408H54.6604V81H48.9244V64.224H62.6524C68.3484 64.224 71.1964 66.04 71.1964 69.672V69.912C71.1964 73.576 68.3484 75.408 62.6524 75.408ZM54.6604 68.04V71.64H62.5564C64.3324 71.64 65.2204 71.056 65.2204 69.888V69.816C65.2204 68.632 64.3324 68.04 62.5564 68.04H54.6604ZM73.1353 64.176H127.471V67.992H78.7993V70.488H127.159V74.328H78.7993V77.088H127.711V81H73.1353V64.176ZM130.253 64.152H142.421C144.133 64.152 145.677 64.256 147.053 64.464C148.429 64.672 149.581 64.976 150.509 65.376C151.437 65.792 152.221 66.24 152.861 66.72C153.533 67.216 154.037 67.768 154.373 68.376C154.725 69 154.981 69.608 155.141 70.2C155.285 70.808 155.357 71.448 155.357 72.12V72.792C155.357 73.608 155.261 74.36 155.069 75.048C154.861 75.752 154.469 76.48 153.893 77.232C153.317 77.984 152.565 78.624 151.637 79.152C150.725 79.68 149.477 80.12 147.893 80.472C146.309 80.808 144.493 80.976 142.445 80.976H130.253V64.152ZM135.989 68.136V76.944H141.965C146.877 76.944 149.333 75.496 149.333 72.6V72.456C149.333 69.576 146.877 68.136 141.965 68.136H135.989Z" fill="black"/>
<g filter="url(#filter0_b_469_2)">
<rect x="36" y="72" width="87" height="88" rx="10" fill="url(#paint0_radial_469_2)" fill-opacity="0.8"/>
<rect x="37" y="73" width="85" height="86" rx="9" stroke="url(#paint1_linear_469_2)" stroke-width="2"/>
</g>
</g>
<defs>
<filter id="filter0_b_469_2" x="32" y="68" width="95" height="96" filterUnits="userSpaceOnUse" color-interpolation-filters="sRGB">
<feFlood flood-opacity="0" result="BackgroundImageFix"/>
<feGaussianBlur in="BackgroundImageFix" stdDeviation="2"/>
<feComposite in2="SourceAlpha" operator="in" result="effect1_backgroundBlur_469_2"/>
<feBlend mode="normal" in="SourceGraphic" in2="effect1_backgroundBlur_469_2" result="shape"/>
</filter>
<radialGradient id="paint0_radial_469_2" cx="0" cy="0" r="1" gradientUnits="userSpaceOnUse" gradientTransform="translate(30.4115 13.6049) rotate(49.3283) scale(222.023 374.036)">
<stop stop-color="#D9D9D9"/>
<stop offset="1" stop-color="#D9D9D9" stop-opacity="0.13"/>
</radialGradient>
<linearGradient id="paint1_linear_469_2" x1="36.507" y1="178.933" x2="132.45" y2="174.026" gradientUnits="userSpaceOnUse">
<stop stop-color="#949494" stop-opacity="0.28"/>
<stop offset="0.26932" stop-color="white" stop-opacity="0"/>
<stop offset="0.454696" stop-opacity="0.08"/>
<stop offset="0.860658" stop-opacity="0.07"/>
</linearGradient>
</defs>
</svg>
