<svg width="32" height="32" viewBox="0 0 32 32" fill="none" xmlns="http://www.w3.org/2000/svg">
<rect width="32" height="32" rx="10" fill="white"/>
<mask id="mask0_328_15" style="mask-type:alpha" maskUnits="userSpaceOnUse" x="0" y="0" width="32" height="32">
<rect width="32" height="32" rx="16" fill="white"/>
</mask>
<g mask="url(#mask0_328_15)">
<path d="M8.862 28.5V15.684H0.99V11.724H22.542V15.684H14.646V28.5H8.862ZM2.19 35.676H56.526V39.492H7.854V41.988H56.214V45.828H7.854V48.588H56.766V52.5H2.19V35.676ZM7.926 76.5H2.19V59.724H7.926V66.708L17.31 59.724H24.582L14.046 67.38L25.086 76.5H17.598L7.926 68.58V76.5ZM12.27 124.812C10.446 124.796 8.854 124.652 7.494 124.38C6.134 124.092 5.086 123.748 4.35 123.348C3.614 122.932 3.022 122.436 2.574 121.86C2.142 121.284 1.87 120.756 1.758 120.276C1.63 119.812 1.566 119.316 1.566 118.788V118.548H7.542C7.638 119.78 8.366 120.58 9.726 120.948C10.446 121.124 11.358 121.212 12.462 121.212H13.782C14.646 121.212 15.446 121.164 16.182 121.068C16.934 120.972 17.486 120.836 17.838 120.66C18.174 120.468 18.398 120.276 18.51 120.084C18.622 119.892 18.686 119.676 18.702 119.436C18.702 119.068 18.598 118.78 18.39 118.572C18.182 118.364 17.726 118.18 17.022 118.02C16.286 117.86 15.246 117.764 13.902 117.732L12.102 117.708L10.734 117.66C4.782 117.516 1.806 115.876 1.806 112.74V112.548C1.822 112.004 1.894 111.5 2.022 111.036C2.182 110.588 2.478 110.132 2.91 109.668C3.358 109.204 3.942 108.82 4.662 108.516C5.382 108.196 6.342 107.932 7.542 107.724C8.758 107.516 10.174 107.412 11.79 107.412H13.47C15.15 107.412 16.63 107.524 17.91 107.748C19.19 107.956 20.206 108.228 20.958 108.564C21.726 108.884 22.35 109.284 22.83 109.764C23.326 110.26 23.662 110.74 23.838 111.204C24.014 111.684 24.102 112.188 24.102 112.716V112.956H18.15C18.118 112.764 18.07 112.612 18.006 112.5C17.958 112.372 17.822 112.204 17.598 111.996C17.39 111.772 17.118 111.596 16.782 111.468C16.414 111.324 15.902 111.204 15.246 111.108C14.542 110.996 13.838 110.94 13.134 110.94H12.27C11.022 110.94 10.03 111.02 9.294 111.18C8.558 111.34 8.11 111.508 7.95 111.684C7.79 111.844 7.71 112.076 7.71 112.38C7.726 112.668 7.814 112.9 7.974 113.076C8.15 113.268 8.558 113.444 9.198 113.604C9.854 113.748 10.774 113.82 11.958 113.82L13.302 113.844L15.03 113.868C18.438 113.932 20.902 114.364 22.422 115.164C23.942 115.948 24.702 117.18 24.702 118.86V119.172C24.702 119.796 24.63 120.356 24.486 120.852C24.326 121.332 24.014 121.828 23.55 122.34C23.102 122.852 22.494 123.284 21.726 123.636C20.974 123.972 19.934 124.252 18.606 124.476C17.278 124.7 15.734 124.812 13.974 124.812H12.27ZM45.006 148.5H13.038C11.694 148.5 10.462 148.396 9.342 148.188C8.238 147.964 7.302 147.676 6.534 147.324C5.782 146.972 5.11 146.54 4.518 146.028C3.942 145.516 3.486 145.004 3.15 144.492C2.798 143.964 2.518 143.404 2.31 142.812C2.086 142.22 1.942 141.676 1.878 141.18C1.798 140.684 1.758 140.196 1.758 139.716V131.676H7.446V139.404C7.446 139.996 7.526 140.548 7.686 141.06C7.878 141.588 8.166 142.1 8.55 142.596C8.966 143.092 9.59 143.484 10.422 143.772C11.27 144.06 12.158 144.204 13.086 144.204C33.982 144.204 44.558 144.196 44.814 144.18C45.934 144.132 46.822 143.996 47.478 143.772C48.294 143.484 48.91 143.092 49.326 142.596C49.742 142.084 50.03 141.572 50.19 141.06C50.366 140.548 50.454 139.996 50.454 139.404V131.676H56.118V139.716C56.118 140.42 56.03 141.124 55.854 141.828C55.678 142.564 55.342 143.332 54.846 144.132C54.35 144.964 53.71 145.692 52.926 146.316C52.158 146.94 51.086 147.46 49.71 147.876C48.334 148.292 46.766 148.5 45.006 148.5ZM2.19 155.724H8.598L20.286 166.284V155.724H25.926V172.5H20.286L7.854 161.388V172.5H2.19V155.724Z" fill="black"/>
<g filter="url(#filter0_b_328_15)">
<rect x="14.5" y="5.5" width="15" height="15.25" rx="7.5" fill="url(#paint0_radial_328_15)" fill-opacity="0.8"/>
<rect x="15.5" y="6.5" width="13" height="13.25" rx="6.5" stroke="url(#paint1_linear_328_15)" stroke-width="2"/>
</g>
</g>
<defs>
<filter id="filter0_b_328_15" x="10.5" y="1.5" width="23" height="23.25" filterUnits="userSpaceOnUse" color-interpolation-filters="sRGB">
<feFlood flood-opacity="0" result="BackgroundImageFix"/>
<feGaussianBlur in="BackgroundImageFix" stdDeviation="2"/>
<feComposite in2="SourceAlpha" operator="in" result="effect1_backgroundBlur_328_15"/>
<feBlend mode="normal" in="SourceGraphic" in2="effect1_backgroundBlur_328_15" result="shape"/>
</filter>
<radialGradient id="paint0_radial_328_15" cx="0" cy="0" r="1" gradientUnits="userSpaceOnUse" gradientTransform="translate(13.5365 -4.6196) rotate(49.4727) scale(38.3926 64.6285)">
<stop stop-color="#D9D9D9"/>
<stop offset="1" stop-color="#D9D9D9" stop-opacity="0.13"/>
</radialGradient>
<linearGradient id="paint1_linear_328_15" x1="14.5874" y1="24.031" x2="31.1297" y2="23.1893" gradientUnits="userSpaceOnUse">
<stop stop-color="#949494" stop-opacity="0.28"/>
<stop offset="0.26932" stop-color="white" stop-opacity="0"/>
<stop offset="0.454696" stop-opacity="0.08"/>
<stop offset="0.860658" stop-opacity="0.07"/>
</linearGradient>
</defs>
</svg>
