<svg width="128" height="128" viewBox="0 0 128 128" fill="none" xmlns="http://www.w3.org/2000/svg">
<rect width="128" height="128" rx="25" fill="white"/>
<mask id="mask0_328_4" style="mask-type:alpha" maskUnits="userSpaceOnUse" x="0" y="0" width="128" height="128">
<rect width="128" height="128" rx="25" fill="white"/>
</mask>
<g mask="url(#mask0_328_4)">
<path d="M5.112 57V44.184H-2.76V40.224H18.792V44.184H10.896V57H5.112ZM20.4947 40.176H74.8307V43.992H26.1587V46.488H74.5187V50.328H26.1587V53.088H75.0707V57H20.4947V40.176ZM83.3479 57H77.6119V40.224H83.3479V47.208L92.7319 40.224H100.004L89.4679 47.88L100.508 57H93.0199L83.3479 49.08V57ZM34.2544 81.312C32.4304 81.296 30.8384 81.152 29.4784 80.88C28.1184 80.592 27.0704 80.248 26.3344 79.848C25.5984 79.432 25.0064 78.936 24.5584 78.36C24.1264 77.784 23.8544 77.256 23.7424 76.776C23.6144 76.312 23.5504 75.816 23.5504 75.288V75.048H29.5264C29.6224 76.28 30.3504 77.08 31.7104 77.448C32.4304 77.624 33.3424 77.712 34.4464 77.712H35.7664C36.6304 77.712 37.4304 77.664 38.1664 77.568C38.9184 77.472 39.4704 77.336 39.8224 77.16C40.1584 76.968 40.3824 76.776 40.4944 76.584C40.6064 76.392 40.6704 76.176 40.6864 75.936C40.6864 75.568 40.5824 75.28 40.3744 75.072C40.1664 74.864 39.7104 74.68 39.0064 74.52C38.2704 74.36 37.2304 74.264 35.8864 74.232L34.0864 74.208L32.7184 74.16C26.7664 74.016 23.7904 72.376 23.7904 69.24V69.048C23.8064 68.504 23.8784 68 24.0064 67.536C24.1664 67.088 24.4624 66.632 24.8944 66.168C25.3424 65.704 25.9264 65.32 26.6464 65.016C27.3664 64.696 28.3264 64.432 29.5264 64.224C30.7424 64.016 32.1584 63.912 33.7744 63.912H35.4544C37.1344 63.912 38.6144 64.024 39.8944 64.248C41.1744 64.456 42.1904 64.728 42.9424 65.064C43.7104 65.384 44.3344 65.784 44.8144 66.264C45.3104 66.76 45.6464 67.24 45.8224 67.704C45.9984 68.184 46.0864 68.688 46.0864 69.216V69.456H40.1344C40.1024 69.264 40.0544 69.112 39.9904 69C39.9424 68.872 39.8064 68.704 39.5824 68.496C39.3744 68.272 39.1024 68.096 38.7664 67.968C38.3984 67.824 37.8864 67.704 37.2304 67.608C36.5264 67.496 35.8224 67.44 35.1184 67.44H34.2544C33.0064 67.44 32.0144 67.52 31.2784 67.68C30.5424 67.84 30.0944 68.008 29.9344 68.184C29.7744 68.344 29.6944 68.576 29.6944 68.88C29.7104 69.168 29.7984 69.4 29.9584 69.576C30.1344 69.768 30.5424 69.944 31.1824 70.104C31.8384 70.248 32.7584 70.32 33.9424 70.32L35.2864 70.344L37.0144 70.368C40.4224 70.432 42.8864 70.864 44.4064 71.664C45.9264 72.448 46.6864 73.68 46.6864 75.36V75.672C46.6864 76.296 46.6144 76.856 46.4704 77.352C46.3104 77.832 45.9984 78.328 45.5344 78.84C45.0864 79.352 44.4784 79.784 43.7104 80.136C42.9584 80.472 41.9184 80.752 40.5904 80.976C39.2624 81.2 37.7184 81.312 35.9584 81.312H34.2544ZM91.7404 81H59.7724C58.4284 81 57.1964 80.896 56.0764 80.688C54.9724 80.464 54.0364 80.176 53.2684 79.824C52.5164 79.472 51.8444 79.04 51.2524 78.528C50.6764 78.016 50.2204 77.504 49.8844 76.992C49.5324 76.464 49.2524 75.904 49.0444 75.312C48.8204 74.72 48.6764 74.176 48.6124 73.68C48.5324 73.184 48.4924 72.696 48.4924 72.216V64.176H54.1804V71.904C54.1804 72.496 54.2604 73.048 54.4204 73.56C54.6124 74.088 54.9004 74.6 55.2844 75.096C55.7004 75.592 56.3244 75.984 57.1564 76.272C58.0044 76.56 58.8924 76.704 59.8204 76.704C80.7164 76.704 91.2924 76.696 91.5484 76.68C92.6684 76.632 93.5564 76.496 94.2124 76.272C95.0284 75.984 95.6444 75.592 96.0604 75.096C96.4764 74.584 96.7644 74.072 96.9244 73.56C97.1004 73.048 97.1884 72.496 97.1884 71.904V64.176H102.852V72.216C102.852 72.92 102.764 73.624 102.588 74.328C102.412 75.064 102.076 75.832 101.58 76.632C101.084 77.464 100.444 78.192 99.6604 78.816C98.8924 79.44 97.8204 79.96 96.4444 80.376C95.0684 80.792 93.5004 81 91.7404 81ZM105.292 64.224H111.7L123.388 74.784V64.224H129.028V81H123.388L110.956 69.888V81H105.292V64.224Z" fill="black"/>
<g filter="url(#filter0_b_328_4)">
<rect x="83" y="51" width="60" height="61" rx="10" fill="url(#paint0_radial_328_4)" fill-opacity="0.8"/>
<rect x="84" y="52" width="58" height="59" rx="9" stroke="url(#paint1_linear_328_4)" stroke-width="2"/>
</g>
</g>
<defs>
<filter id="filter0_b_328_4" x="79" y="47" width="68" height="69" filterUnits="userSpaceOnUse" color-interpolation-filters="sRGB">
<feFlood flood-opacity="0" result="BackgroundImageFix"/>
<feGaussianBlur in="BackgroundImageFix" stdDeviation="2"/>
<feComposite in2="SourceAlpha" operator="in" result="effect1_backgroundBlur_328_4"/>
<feBlend mode="normal" in="SourceGraphic" in2="effect1_backgroundBlur_328_4" result="shape"/>
</filter>
<radialGradient id="paint0_radial_328_4" cx="0" cy="0" r="1" gradientUnits="userSpaceOnUse" gradientTransform="translate(79.1458 10.5216) rotate(49.4727) scale(153.57 258.514)">
<stop stop-color="#D9D9D9"/>
<stop offset="1" stop-color="#D9D9D9" stop-opacity="0.13"/>
</radialGradient>
<linearGradient id="paint1_linear_328_4" x1="83.3496" y1="125.124" x2="149.519" y2="121.757" gradientUnits="userSpaceOnUse">
<stop stop-color="#949494" stop-opacity="0.28"/>
<stop offset="0.26932" stop-color="white" stop-opacity="0"/>
<stop offset="0.454696" stop-opacity="0.08"/>
<stop offset="0.860658" stop-opacity="0.07"/>
</linearGradient>
</defs>
</svg>
