<svg width="22" height="21" viewBox="0 0 22 21" fill="none" xmlns="http://www.w3.org/2000/svg">
<g clip-path="url(#clip0_3_319)">
<path d="M20.9039 19.8344L14.6665 13.5592C15.829 12.167 16.5293 10.3754 16.5293 8.41957C16.5293 3.98792 12.9373 0.395874 8.50563 0.395874C4.07398 0.395874 0.481934 3.98792 0.481934 8.41957C0.481934 12.8512 4.07398 16.4433 8.50563 16.4433C10.5186 16.4433 12.3583 15.7 13.7673 14.4746L19.9956 20.742C20.2459 20.9924 20.6529 20.9924 20.9039 20.742C21.1548 20.4917 21.1542 20.086 20.9039 19.8344ZM8.50627 15.1704C4.77814 15.1704 1.75546 12.1477 1.75546 8.41957C1.75546 4.69144 4.7775 1.66875 8.50627 1.66875C12.2344 1.66875 15.2564 4.6908 15.2564 8.41957C15.2564 12.1483 12.2344 15.1704 8.50627 15.1704Z" fill="#434343"/>
</g>
<defs>
<clipPath id="clip0_3_319">
<rect width="20.5407" height="20.5407" fill="white" transform="translate(0.551392 0.396545)"/>
</clipPath>
</defs>
</svg>
