<svg width="480" height="480" viewBox="0 0 480 480" fill="none" xmlns="http://www.w3.org/2000/svg">
<path fill-rule="evenodd" clip-rule="evenodd" d="M480 0H0V480H480V0ZM194.461 416H154.352V257.421H96.8438V224.352H251.968V257.421H194.461V416ZM425.258 358.89C425.258 396.874 395.773 420.915 347.962 420.915C302.141 420.915 273.187 399.002 270.931 364.998L270.797 362.874H309.446L309.578 364.202C311.04 378.547 326.579 388.243 349.024 388.243C370.406 388.243 385.149 378.016 385.149 363.274V363.139C385.149 350.525 375.718 343.485 351.946 338.57L331.757 334.454C291.914 326.352 274.781 307.757 274.781 278.672V278.538C274.781 242.944 305.328 219.437 347.827 219.437C392.586 219.437 418.883 243.078 421.405 275.085L421.539 276.813H383.821L383.555 275.219C381.296 261.539 368.016 251.978 347.827 251.978C328.038 252.109 314.89 261.139 314.89 275.485V275.616C314.89 288.102 324.189 295.539 346.765 300.189L367.085 304.304C407.594 312.672 425.258 328.874 425.258 358.758V358.89Z" fill="#121923"/>
</svg>
